<!DOCTYPE svg PUBLIC "-//W3C//DTD SVG 1.1//EN" "http://www.w3.org/Graphics/SVG/1.1/DTD/svg11.dtd">
<!-- Uploaded to: SVG Repo, www.svgrepo.com, Transformed by: SVG Repo Mixer Tools -->
<svg width="800px" height="800px" viewBox="0 0 76 76" xmlns="http://www.w3.org/2000/svg" xmlns:xlink="http://www.w3.org/1999/xlink" version="1.1" baseProfile="full" enable-background="new 0 0 76.00 76.00" xml:space="preserve" fill="#000000">
<g id="SVGRepo_bgCarrier" stroke-width="0"/>
<g id="SVGRepo_tracerCarrier" stroke-linecap="round" stroke-linejoin="round"/>
<g id="SVGRepo_iconCarrier"> <path fill="#e3b40d" fill-opacity="1" stroke-linejoin="round" d="M 44.5,19L 49,19L 33,57L 28.5,57L 44.5,19 Z M 26.5075,40.12C 21.5025,40.12 19,36.707 19,29.8808C 19,26.3395 19.6768,23.6406 21.0304,21.7844C 22.384,19.9281 24.3472,19 26.92,19C 31.8089,19 34.2533,22.4696 34.2533,29.4088C 34.2533,32.8646 33.5857,35.5138 32.2504,37.3563C 30.9151,39.1988 29.0008,40.12 26.5075,40.12 Z M 26.7229,22.52C 24.7032,22.52 23.6933,24.937 23.6933,29.7708C 23.6933,34.3236 24.6833,36.6 26.6633,36.6C 28.5944,36.6 29.56,34.2533 29.56,29.56C 29.56,24.8667 28.6143,22.52 26.7229,22.52 Z M 57,57L 44,57L 44,53L 49,53L 49,40.75L 44.0933,41.4533L 44.0933,37.9333L 52.8933,36.1733L 53,53L 57,53L 57,57 Z "/> </g>
</svg>